<svg width="700" height="600" viewBox="0 0 700 600" fill="none" xmlns="http://www.w3.org/2000/svg">
<path d="M200.868 407.146C198.571 404.561 195.88 402.355 192.893 400.612C187.444 397.417 180.299 395.264 171.29 395.264C165.118 395.235 159.003 396.451 153.312 398.841C147.621 401.23 142.471 404.744 138.17 409.172C129.695 417.892 124.492 430.139 124.5 444.165C124.508 458.191 129.704 470.437 138.17 479.149C142.468 483.581 147.618 487.099 153.309 489.492C159 491.885 165.116 493.103 171.29 493.074C180.299 493.074 187.444 490.921 192.893 487.726C195.877 485.983 198.569 483.781 200.868 481.2V490.438H217.903V397.908H200.868V407.146ZM171.468 476.912C167.463 476.955 163.495 476.146 159.826 474.538C156.157 472.931 152.872 470.563 150.188 467.59C144.899 461.767 141.713 453.572 141.713 444.156C141.713 434.741 144.899 426.545 150.188 420.723C152.871 417.749 156.156 415.379 159.825 413.772C163.494 412.165 167.463 411.356 171.468 411.401C175.597 411.351 179.691 412.154 183.495 413.758C187.3 415.362 190.733 417.733 193.579 420.723C199.105 426.562 202.444 434.732 202.453 444.131C202.461 453.53 199.105 461.716 193.554 467.573C190.714 470.566 187.286 472.941 183.486 474.548C179.686 476.155 175.594 476.96 171.468 476.912Z" fill="#F37022"/>
<path d="M323.094 397.908H319.272H303.525L281.262 427.935L258.82 397.908H239.429L271.846 441.376L236.7 490.438H255.854L281.431 454.868L306.669 490.438H325.992L290.855 441.207L323.094 397.908Z" fill="#F37022"/>
<path d="M403.14 398.9C397.61 396.458 391.625 395.219 385.58 395.264C372.359 395.264 360.68 400.129 352.375 408.765C344.069 417.4 339.137 429.765 339.146 444.52V445.224C339.146 459.453 343.883 471.394 352.172 479.725C360.46 488.056 372.223 492.726 385.936 492.718C392.528 492.851 399.085 491.718 405.25 489.378C412.171 486.525 418.328 482.09 423.226 476.429L424.455 475.056L412.954 463.784L411.615 465.191C407.988 468.988 404.564 471.886 400.597 473.861C396.631 475.835 392.029 476.912 385.919 476.912C381.824 476.962 377.756 476.243 373.927 474.793C368.758 472.806 364.364 469.211 361.392 464.538C358.498 459.81 356.807 454.444 356.468 448.91H428.014L428.133 447.114C428.311 444.385 428.311 441.376 428.311 441.351C428.311 428.706 424.124 417.197 416.649 408.824C412.899 404.597 408.295 401.214 403.14 398.9ZM365.969 418.57C371.435 413.91 378.397 411.373 385.58 411.426C392.146 411.408 398.457 413.967 403.157 418.553C407.285 422.551 409.831 427.905 410.327 433.63H357.46C358.405 427.754 361.423 422.411 365.969 418.57Z" fill="black"/>
<path d="M514.492 402.154C508.958 398.493 502.009 396.501 493.975 396.501C487.447 396.393 481.016 398.088 475.389 401.399C472.409 403.19 469.763 405.484 467.567 408.179V397.908H450.345V490.437H467.558V435.545C467.558 428.596 469.931 422.934 473.94 418.968C477.948 415.002 483.661 412.663 490.627 412.654C493.676 412.626 496.703 413.169 499.551 414.256C503.289 415.672 506.443 418.301 508.509 421.722C510.767 425.669 511.893 430.161 511.763 434.706V490.48H528.798V431.85C528.849 426.995 528.051 422.168 526.442 417.587C524.238 411.283 520.044 405.866 514.492 402.154Z" fill="black"/>
<path d="M554.52 490.438H556.443H571.741V397.908H554.52V490.438Z" fill="black"/>
<path d="M644.863 441.207L677.11 397.908H657.533L635.269 427.935L612.836 397.908H593.437L625.853 441.376L590.708 490.438H609.861L635.439 454.868L660.677 490.438H680L644.863 441.207Z" fill="black"/>
<path d="M202.775 351.694C201.562 349.61 200.554 347.414 199.766 345.135C197.36 338.18 197.056 330.67 198.894 323.543C200.731 316.416 204.628 309.989 210.097 305.065L323.094 203.365V182.687L199.817 293.709C194.662 298.348 190.471 303.957 187.484 310.217C184.497 316.476 182.773 323.263 182.41 330.189C182.048 337.115 183.053 344.044 185.369 350.582C187.686 357.119 191.268 363.136 195.91 368.288L201.054 374L323.094 264.114V243.435L202.775 351.694Z" fill="#F37022"/>
<path d="M246.819 373.924H269.778L323.094 325.913V305.243L246.819 373.924Z" fill="#F37022"/>
</svg>
